# xmcd
#
# Track frame offsets:
#	150
#	13282
#	30750
#	46143
#	57846
#	71797
#	86995
#	101321
#	115101
#	131168
#	149852
#	167087
#
# Disc length: 2525 seconds
#
# Revision: 1
# Processed by: cddbd v1.5.2PL0 Copyright (c) Steve Scherf et al.
# Submitted via: audiograbber 1.83.01
#
DISCID=a809db0c
DTITLE=Fall From Grace - Stifting Through The Wreckage
DYEAR=2009
DGENRE=Rock
TTITLE0=Hated youth
TTITLE1=King of lies
TTITLE2=Wake up my friend
TTITLE3=The last straw
TTITLE4=Burned
TTITLE5=Destroy the champion
TTITLE6=Pictures on the wall
TTITLE7=Covered in scars
TTITLE8=Blue and cold
TTITLE9=This sickness
TTITLE10=I can't win
TTITLE11=Pet sematary
EXTD=
EXTT0=
EXTT1=
EXTT2=
EXTT3=
EXTT4=
EXTT5=
EXTT6=
EXTT7=
EXTT8=
EXTT9=
EXTT10=
EXTT11=
PLAYORDER=
